<?xml version="1.0" encoding="utf-8"?>
<!-- Generator: Adobe Illustrator 16.0.0, SVG Export Plug-In . SVG Version: 6.00 Build 0)  -->
<!DOCTYPE svg PUBLIC "-//W3C//DTD SVG 1.1//EN" "http://www.w3.org/Graphics/SVG/1.1/DTD/svg11.dtd">
<svg version="1.1" id="Layer_1" xmlns="http://www.w3.org/2000/svg" xmlns:xlink="http://www.w3.org/1999/xlink" x="0px" y="0px"
	 width="764.365px" height="209.898px" viewBox="0 0 764.365 209.898" enable-background="new 0 0 764.365 209.898"
	 xml:space="preserve">
<path d="M764.365,131.416c0,0-0.424,0.021-1.22,0.059L648.469,44.513l-0.604,0.796L640.764,10l0.688,4.239l-0.241-0.966
	C531.042,40.813,397.089,38.426,327.045,34.551C225.617,28.941,145.267,14.662,126.183,4.098l-0.484,0.875l-1-4.973l0.851,5.242
	l-0.335,0.605c0.151,0.084,0.316,0.168,0.475,0.252l1.198,7.381L44.168,135.938c-22.408-0.273-44.035-0.567-44.095-0.688
	c-1.125,10.625,11,15.75,14.345,16.5s15.53,3.25,8.28,10.875s-7.5,15.625-8.25,25.875s12.5,24.25,22.5,20.25s17.75-0.75,17.75-0.75
	s567,3.417,640.667,1.083s67.666-32.499,67.666-32.499L764.365,131.416z M128.448,130.875L128.073,145l-29.125-0.375l-5.625-8.125
	c0,0-23.392-0.251-46.745-0.533l80.779-119.585l18.589,114.493H128.448z M168.573,130.875h-17.555L127.954,16.188l98.36,106.188
	h-57.865L168.573,130.875z M607.948,135.5l-6.875,0.125l0.125-13.25h-35.583L553.781,61.75l-26.334,3l11.168,57.625h-72
	L454.781,61.75l-26.334,3l11.168,57.625h-76.5L351.281,61.75l-26.334,3l11.168,57.625h-68L256.281,61.75l-26.334,3l11.168,57.625
	h-4.833h-7.214L127.441,12.66l-0.151,0.225l-1.336-6.645c20.519,10.631,100.505,24.75,200.981,30.308
	c22.476,1.243,51.513,2.333,84.246,2.333c69.412,0,155.406-4.904,230.433-23.646l4.977,30.647l-0.998-0.399l-37.033,92.543
	C608.136,136.601,607.948,135.5,607.948,135.5z M654.073,137.25c-0.5,0.625-3.125,6.875-3.125,6.875s-32.75,0.375-37.125,0.375
	c-1.897,0-3.253-1.694-4.181-3.611l37.257-93.102l14.431,88.881C656.843,136.947,654.15,137.153,654.073,137.25z M666.179,136.377
	l-18.017-89.586l111.851,84.833C744.362,132.373,690.514,134.966,666.179,136.377z"/>
</svg>
